<?xml version="1.0" encoding="UTF-8" standalone="no"?>
<svg
   width="751.57"
   height="539.42"
   viewBox="0 0 751.57 539.42"
   version="1.1"
   id="svg16"
   sodipodi:docname="cadastro.svg"
   inkscape:version="1.3 (0e150ed6c4, 2023-07-21)"
   xmlns:inkscape="http://www.inkscape.org/namespaces/inkscape"
   xmlns:sodipodi="http://sodipodi.sourceforge.net/DTD/sodipodi-0.dtd"
   xmlns="http://www.w3.org/2000/svg"
   xmlns:svg="http://www.w3.org/2000/svg">
  <defs
     id="defs16" />
  <sodipodi:namedview
     id="namedview16"
     pagecolor="#505050"
     bordercolor="#eeeeee"
     borderopacity="1"
     inkscape:showpageshadow="0"
     inkscape:pageopacity="0"
     inkscape:pagecheckerboard="0"
     inkscape:deskcolor="#d1d1d1"
     inkscape:zoom="0.31400934"
     inkscape:cx="375.785"
     inkscape:cy="270.69259"
     inkscape:window-width="631"
     inkscape:window-height="960"
     inkscape:window-x="642"
     inkscape:window-y="57"
     inkscape:window-maximized="1"
     inkscape:current-layer="svg16" />
  <path
     d="m 731.67,538.23 c 0,0.66 -0.53,1.19 -1.19,1.19 H 1.19 c -0.66,0 -1.19,-0.53 -1.19,-1.19 0,-0.66 0.53,-1.19 1.19,-1.19 h 729.29 c 0.66,0 1.19,0.53 1.19,1.19 z"
     fill="#3f3d58"
     id="path1" />
  <path
     d="m 498.14,95.15 h 233.9 c 8.92,0 16.18,-7.26 16.18,-16.18 0,-8.92 -7.26,-16.18 -16.18,-16.18 h -233.9 c -8.92,0 -16.18,7.26 -16.18,16.18 0,8.92 7.26,16.18 16.18,16.18 z m 233.9,-30.36 c 7.82,0 14.18,6.36 14.18,14.18 0,7.82 -6.36,14.18 -14.18,14.18 h -233.9 c -7.82,0 -14.18,-6.36 -14.18,-14.18 0,-7.82 6.36,-14.18 14.18,-14.18 h 233.9 z"
     fill="#e2e3e4"
     id="path2" />
  <path
     d="m 498.14,284.5 h 233.9 c 8.65,0 15.68,-7.03 15.68,-15.68 0,-8.65 -7.03,-15.68 -15.68,-15.68 h -233.9 c -8.65,0 -15.68,7.03 -15.68,15.68 0,8.65 7.03,15.68 15.68,15.68 z"
     fill="#121d46"
     id="path3" />
  <path
     d="m 574.79,31.36 h 161.1 c 8.65,0 15.68,-7.03 15.68,-15.68 C 751.57,7.03 744.54,0 735.89,0 h -161.1 c -8.65,0 -15.68,7.03 -15.68,15.68 0,8.65 7.03,15.68 15.68,15.68 z"
     fill="#e2e3e4"
     id="path4" />
  <path
     d="m 498.14,158.43 h 233.9 c 8.92,0 16.18,-7.26 16.18,-16.18 0,-8.92 -7.26,-16.18 -16.18,-16.18 h -233.9 c -8.92,0 -16.18,7.26 -16.18,16.18 0,8.92 7.26,16.18 16.18,16.18 z m 233.9,-30.36 c 7.82,0 14.18,6.36 14.18,14.18 0,7.82 -6.36,14.18 -14.18,14.18 h -233.9 c -7.82,0 -14.18,-6.36 -14.18,-14.18 0,-7.82 6.36,-14.18 14.18,-14.18 z"
     fill="#e2e3e4"
     id="path5" />
  <path
     d="m 498.14,221.72 h 233.9 c 8.92,0 16.18,-7.26 16.18,-16.18 0,-8.92 -7.26,-16.18 -16.18,-16.18 h -233.9 c -8.92,0 -16.18,7.26 -16.18,16.18 0,8.92 7.26,16.18 16.18,16.18 z m 233.9,-30.36 c 7.82,0 14.18,6.36 14.18,14.18 0,7.82 -6.36,14.18 -14.18,14.18 h -233.9 c -7.82,0 -14.18,-6.36 -14.18,-14.18 0,-7.82 6.36,-14.18 14.18,-14.18 z"
     fill="#e2e3e4"
     id="path6" />
  <path
     d="m 740.08,51.17 h -61.3 c -1.46,0 -2.65,1.18 -2.65,2.65 v 0 c 0,1.46 1.19,2.65 2.65,2.65 h 61.3 c 1.46,0 2.65,-1.18 2.65,-2.65 v 0 c 0,-1.46 -1.19,-2.65 -2.65,-2.65 z"
     fill="#e2e3e4"
     id="path7" />
  <path
     d="m 740.08,115.95 h -61.3 c -1.46,0 -2.65,1.18 -2.65,2.64 v 0 c 0,1.46 1.19,2.65 2.65,2.65 h 61.3 c 1.46,0 2.65,-1.18 2.65,-2.64 v 0 c 0,-1.46 -1.19,-2.65 -2.65,-2.65 z"
     fill="#e2e3e4"
     id="path8" />
  <path
     d="m 740.08,180.74 h -61.3 c -1.46,0 -2.65,1.18 -2.65,2.65 v 0 c 0,1.46 1.19,2.64 2.65,2.64 h 61.3 c 1.46,0 2.65,-1.18 2.65,-2.65 v 0 c 0,-1.46 -1.19,-2.64 -2.65,-2.64 z"
     fill="#e2e3e4"
     id="path9" />
  <g
     id="g16"
     transform="matrix(-1,0,0,1,751.57,0)">
    <polygon
       points="424.72,139.62 424.72,107.43 445.01,107.43 447.08,132.26 "
       fill="#9f616a"
       id="polygon9" />
    <circle
       cx="427.48999"
       cy="94.059998"
       r="22.280001"
       fill="#9f616a"
       id="circle9" />
    <path
       d="m 433.61,91.85 c -3.73,-0.11 -6.18,-3.88 -7.63,-7.32 -1.45,-3.44 -2.94,-7.39 -6.4,-8.81 -2.83,-1.16 -7.82,6.69 -10.05,4.6 -2.33,-2.18 -0.06,-13.37 2.41,-15.38 2.47,-2.01 5.85,-2.4 9.03,-2.55 7.76,-0.36 15.57,0.27 23.18,1.86 4.71,0.98 9.55,2.46 12.95,5.86 4.3,4.32 5.4,10.83 5.71,16.92 0.32,6.23 -0.04,12.75 -3.07,18.2 -3.03,5.45 -9.37,9.47 -15.45,8.08 -0.61,-3.3 0.01,-6.69 0.25,-10.05 0.23,-3.35 -0.01,-6.97 -2.06,-9.64 -2.04,-2.67 -6.42,-3.73 -8.8,-1.36"
       fill="#2f2e43"
       id="path10" />
    <path
       d="m 461.02,99.57 c 2.23,-1.63 4.9,-3 7.64,-2.66 2.96,0.36 5.47,2.8 6.23,5.69 0.76,2.89 -0.09,6.07 -1.93,8.43 -1.83,2.36 -4.56,3.92 -7.44,4.7 -1.67,0.45 -3.5,0.64 -5.09,-0.04 -2.34,-1.01 -3.61,-4 -2.69,-6.38"
       fill="#2f2e43"
       id="path11" />
    <g
       id="g12">
      <path
         id="uuid-00bc58e7-734f-4d7c-a085-03c0cd267642-62"
         d="m 375.76,309.2 c -1.49,7.32 1.24,14.01 6.08,14.94 4.84,0.93 9.97,-4.26 11.45,-11.58 0.63,-2.92 0.53,-5.94 -0.29,-8.82 l 18.43,-114.75 -23.05,-4.34 -8.9,116.5 c -1.89,2.36 -3.16,5.12 -3.72,8.06 v 0 z"
         fill="#9f616a" />
      <path
         d="m 424.48,124.85 h -15.73 c -11.12,1.69 -14.14,7.62 -16.67,18.58 -3.86,16.72 -8.79,38.98 -7.81,39.31 1.57,0.52 28.35,13.12 42,10.24 l -1.79,-68.13 z"
         fill="#e2e3e4"
         id="path12" />
    </g>
    <rect
       x="418.75"
       y="490.35999"
       width="20.940001"
       height="29.709999"
       fill="#9f616a"
       id="rect12" />
    <path
       d="m 398.36,538.05 c -2.2,0 -4.16,-0.05 -5.64,-0.19 -5.56,-0.51 -10.87,-4.62 -13.54,-7.02 -1.2,-1.08 -1.58,-2.8 -0.96,-4.28 v 0 c 0.45,-1.06 1.34,-1.86 2.45,-2.17 l 14.7,-4.2 23.8,-16.06 0.27,0.48 c 0.1,0.18 2.44,4.39 3.22,7.23 0.3,1.08 0.22,1.98 -0.23,2.68 -0.31,0.48 -0.75,0.76 -1.1,0.92 0.43,0.45 1.78,1.37 5.94,2.03 6.07,0.96 7.35,-5.33 7.4,-5.59 l 0.04,-0.21 0.18,-0.12 c 2.89,-1.86 4.67,-2.71 5.28,-2.53 0.38,0.11 1.02,0.31 2.75,17.44 0.17,0.54 1.38,4.48 0.56,8.25 -0.89,4.1 -18.81,2.69 -22.4,2.37 -0.1,0.01 -13.52,0.97 -22.71,0.97 v 0 z"
       fill="#2f2e43"
       id="path13" />
    <rect
       x="487.82001"
       y="470.31"
       width="20.940001"
       height="29.709999"
       transform="rotate(-31.95,498.28789,485.15819)"
       fill="#9f616a"
       id="rect13" />
    <path
       d="m 475.72,533.98 c -2.46,0 -4.72,-0.3 -6.33,-0.58 -1.58,-0.28 -2.82,-1.54 -3.08,-3.12 v 0 c -0.18,-1.14 0.15,-2.29 0.93,-3.14 l 10.25,-11.34 11.7,-26.22 0.48,0.26 c 0.18,0.1 4.39,2.43 6.56,4.43 0.83,0.76 1.24,1.57 1.22,2.4 -0.01,0.58 -0.23,1.04 -0.45,1.37 0.6,0.16 2.23,0.22 6.11,-1.42 5.66,-2.39 3.42,-8.41 3.32,-8.66 l -0.08,-0.2 0.09,-0.19 c 1.47,-3.11 2.52,-4.77 3.14,-4.94 0.39,-0.11 1.03,-0.28 11.56,13.35 0.43,0.36 3.54,3.07 4.84,6.7 1.41,3.95 -14.54,12.24 -17.75,13.86 -0.1,0.08 -16.79,12.21 -23.65,15.66 -2.72,1.37 -5.94,1.79 -8.87,1.79 v 0 z"
       fill="#2f2e43"
       id="path14" />
    <path
       d="m 455.11,241.91 h -58.63 l -5.32,54.54 23.28,201.52 h 29.93 l -11.97,-116.39 48.55,105.08 26.6,-18.62 -37.91,-98.1 c 0,0 13.54,-85.46 2.9,-106.75 -10.64,-21.28 -17.43,-21.28 -17.43,-21.28 z"
       fill="#2f2e43"
       id="path15" />
    <polygon
       points="391.16,245.23 419.1,124.85 459.67,124.85 484.28,245.23 "
       fill="#e2e3e4"
       id="polygon15" />
    <path
       id="uuid-ece83039-1aa0-468e-a846-e0cb6ecd6032-63"
       d="m 492.66,309.2 c 1.49,7.32 -1.24,14.01 -6.08,14.94 -4.84,0.93 -9.97,-4.26 -11.45,-11.58 -0.63,-2.92 -0.53,-5.94 0.29,-8.82 l -18.43,-114.75 23.05,-4.34 8.9,116.5 c 1.89,2.36 3.16,5.12 3.72,8.06 v 0 z"
       fill="#9f616a" />
    <path
       d="m 443.94,124.85 h 15.73 c 11.12,1.69 14.14,7.62 16.67,18.58 3.86,16.72 8.79,38.98 7.81,39.31 -1.57,0.52 -28.35,13.12 -42,10.24 l 1.79,-68.13 z"
       fill="#e2e3e4"
       id="path16" />
  </g>
</svg>
